<?xml version="1.0" standalone="no"?><!DOCTYPE svg PUBLIC "-//W3C//DTD SVG 1.1//EN" "http://www.w3.org/Graphics/SVG/1.1/DTD/svg11.dtd"><svg t="1683612457899" class="icon" viewBox="0 0 1024 1024" version="1.1" xmlns="http://www.w3.org/2000/svg" p-id="3782" xmlns:xlink="http://www.w3.org/1999/xlink" width="32" height="32"><path d="M697.359638 689.069835l-166.241208 170.145122c-5.335519 5.459339-11.773138 8.191566-19.316951 8.191566-7.54279 0-13.982456-2.732228-19.315928-8.191566l-166.241208-170.145122c-8.002254-8.18645-10.251481-19.718087-5.92085-30.417777 4.329609-10.697643 13.921058-17.203824 25.234731-17.203824l134.206608 0 0-452.229708c0-17.838274 14.397918-32.296567 32.236192-32.296567 17.833157 0 32.232099 14.458293 32.232099 32.296567l0 452.229708L678.04371 641.448234c11.31572 0 20.908192 6.506181 25.236777 17.203824C707.610096 669.351748 705.358823 680.883385 697.359638 689.069835z" p-id="3783" fill="#00CCFF"></path></svg>