<?xml version="1.0" standalone="no"?><!DOCTYPE svg PUBLIC "-//W3C//DTD SVG 1.1//EN" "http://www.w3.org/Graphics/SVG/1.1/DTD/svg11.dtd"><svg height="400" node-id="1" sillyvg="true" template-height="400" template-width="400" version="1.1" viewBox="0 0 400 400" width="400" xmlns="http://www.w3.org/2000/svg" xmlns:xlink="http://www.w3.org/1999/xlink"><defs node-id="134"><clipPath id="SVGID_2_" node-id="10"><path d="M 324.60 102.30 C 324.60 100.60 323.20 99.20 321.50 99.20 L 80.40 99.20 C 78.70 99.20 77.30 100.60 77.30 102.30 L 77.30 249.50 C 77.30 251.20 78.70 252.60 80.40 252.60 L 321.60 252.60 C 323.30 252.60 324.70 251.20 324.70 249.50 L 324.70 102.30 L 324.60 102.30 Z" fill="#000000" fill-rule="nonzero" node-id="137" stroke="none" target-height="153.40001" target-width="247.40001" target-x="77.3" target-y="99.2"></path></clipPath></defs><path d="M 224.30 252.10 L 175.20 252.10 L 175.20 271.80 L 224.30 271.80 L 224.30 252.10 Z" fill="#8682f8" fill-rule="evenodd" node-id="145" stroke="none" target-height="19.699982" target-width="49.100006" target-x="175.2" target-y="252.1"></path><path d="M 251.80 299.20 C 251.80 297.90 250.70 296.80 249.40 296.80 L 150.00 296.80 C 148.70 296.80 147.60 297.90 147.60 299.20 C 147.60 300.50 148.70 301.60 150.00 301.60 L 249.40 301.60 C 250.70 301.60 251.80 300.50 251.80 299.20 L 251.80 299.20 Z" fill="#8682f8" fill-rule="evenodd" node-id="147" stroke="none" target-height="4.8000183" target-width="104.2" target-x="147.6" target-y="296.8"></path><path d="M 251.50 297.80 L 148.00 297.80 L 174.60 271.30 L 224.90 271.30 L 251.50 297.80 Z" fill="#b1b2ff" fill-rule="evenodd" node-id="149" stroke="none" target-height="26.5" target-width="103.5" target-x="148" target-y="271.3"></path><path d="M 324.60 102.30 C 324.60 100.60 323.20 99.20 321.50 99.20 L 80.40 99.20 C 78.70 99.20 77.30 100.60 77.30 102.30 L 77.30 249.50 C 77.30 251.20 78.70 252.60 80.40 252.60 L 321.60 252.60 C 323.30 252.60 324.70 251.20 324.70 249.50 L 324.70 102.30 L 324.60 102.30 Z" fill="#b1b2ff" fill-rule="evenodd" node-id="151" stroke="none" target-height="153.40001" target-width="247.40001" target-x="77.3" target-y="99.2"></path><g node-id="209"><g clip-path="url(#SVGID_2_)" group-id="1" node-id="155"><path d="M 354.20 60.40 L 181.90 296.00 L 337.90 290.40 L 403.30 238.90 L 354.20 60.40 Z" fill="#8682f8" fill-rule="evenodd" group-id="1,2" node-id="157" stroke="none" target-height="235.6" target-width="221.4" target-x="181.9" target-y="60.4"></path></g></g><path d="M 316.40 108.20 C 316.40 106.60 315.10 105.40 313.60 105.40 L 88.90 105.40 C 87.30 105.40 86.10 106.70 86.10 108.20 L 86.10 243.60 C 86.10 245.20 87.40 246.40 88.90 246.40 L 313.60 246.40 C 315.20 246.40 316.40 245.10 316.40 243.60 L 316.40 108.20 L 316.40 108.20 Z" fill="#ffffff" fill-rule="evenodd" node-id="161" stroke="none" target-height="141" target-width="230.29999" target-x="86.1" target-y="105.4"></path><path d="M 120.20 135.30 C 120.20 134.20 119.30 133.30 118.20 133.30 C 117.10 133.30 116.20 134.20 116.20 135.30 L 116.20 235.30 C 116.20 236.40 117.10 237.30 118.20 237.30 C 119.30 237.30 120.20 236.40 120.20 235.30 L 120.20 135.30 L 120.20 135.30 Z" fill="#b1b2ff" fill-rule="evenodd" node-id="163" stroke="none" target-height="104" target-width="4" target-x="116.2" target-y="133.3"></path><path d="M 131.80 199.70 C 131.80 198.60 130.90 197.70 129.80 197.70 C 128.70 197.70 127.80 198.60 127.80 199.70 L 127.80 235.40 C 127.80 236.50 128.70 237.40 129.80 237.40 C 130.90 237.40 131.80 236.50 131.80 235.40 L 131.80 199.70 L 131.80 199.70 Z" fill="#dddefd" fill-rule="evenodd" node-id="165" stroke="none" target-height="39.699997" target-width="4" target-x="127.8" target-y="197.7"></path><path d="M 142.90 188.30 C 142.90 187.20 142.00 186.30 140.90 186.30 C 139.80 186.30 138.90 187.20 138.90 188.30 L 138.90 235.30 C 138.90 236.40 139.80 237.30 140.90 237.30 C 142.00 237.30 142.90 236.40 142.90 235.30 L 142.90 188.30 L 142.90 188.30 Z" fill="#b1b2ff" fill-rule="evenodd" node-id="167" stroke="none" target-height="51" target-width="4" target-x="138.9" target-y="186.3"></path><path d="M 156.00 171.30 C 156.00 170.20 155.10 169.30 154.00 169.30 C 152.90 169.30 152.00 170.20 152.00 171.30 L 152.00 235.40 C 152.00 236.50 152.90 237.40 154.00 237.40 C 155.10 237.40 156.00 236.50 156.00 235.40 L 156.00 171.30 L 156.00 171.30 Z" fill="#b1b2ff" fill-rule="evenodd" node-id="169" stroke="none" target-height="68.09999" target-width="4" target-x="152" target-y="169.3"></path><path d="M 167.50 177.00 C 167.50 175.90 166.60 175.00 165.50 175.00 C 164.40 175.00 163.50 175.90 163.50 177.00 L 163.50 235.40 C 163.50 236.50 164.40 237.40 165.50 237.40 C 166.60 237.40 167.50 236.50 167.50 235.40 L 167.50 177.00 L 167.50 177.00 Z" fill="#dddefd" fill-rule="evenodd" node-id="171" stroke="none" target-height="62.399994" target-width="4" target-x="163.5" target-y="175"></path><path d="M 180.00 165.60 C 180.00 164.50 179.10 163.60 178.00 163.60 C 176.90 163.60 176.00 164.50 176.00 165.60 L 176.00 235.30 C 176.00 236.40 176.90 237.30 178.00 237.30 C 179.10 237.30 180.00 236.40 180.00 235.30 L 180.00 165.60 L 180.00 165.60 Z" fill="#eaebfb" fill-rule="evenodd" node-id="173" stroke="none" target-height="73.7" target-width="4" target-x="176" target-y="163.6"></path><path d="M 190.80 216.70 C 190.80 215.60 189.90 214.70 188.80 214.70 C 187.70 214.70 186.80 215.60 186.80 216.70 L 186.80 235.40 C 186.80 236.50 187.70 237.40 188.80 237.40 C 189.90 237.40 190.80 236.50 190.80 235.40 L 190.80 216.70 L 190.80 216.70 Z" fill="#b1b2ff" fill-rule="evenodd" node-id="175" stroke="none" target-height="22.699997" target-width="4" target-x="186.8" target-y="214.7"></path><path d="M 244.70 216.70 C 244.70 215.60 243.80 214.70 242.70 214.70 C 241.60 214.70 240.70 215.60 240.70 216.70 L 240.70 235.40 C 240.70 236.50 241.60 237.40 242.70 237.40 C 243.80 237.40 244.70 236.50 244.70 235.40 L 244.70 216.70 L 244.70 216.70 Z" fill="#b1b2ff" fill-rule="evenodd" node-id="177" stroke="none" target-height="22.699997" target-width="4" target-x="240.7" target-y="214.7"></path><path d="M 202.70 205.30 C 202.70 204.20 201.80 203.30 200.70 203.30 C 199.60 203.30 198.70 204.20 198.70 205.30 L 198.70 235.30 C 198.70 236.40 199.60 237.30 200.70 237.30 C 201.80 237.30 202.70 236.40 202.70 235.30 L 202.70 205.30 L 202.70 205.30 Z" fill="#eaebfb" fill-rule="evenodd" node-id="179" stroke="none" target-height="34" target-width="4" target-x="198.7" target-y="203.3"></path><path d="M 256.60 205.30 C 256.60 204.20 255.70 203.30 254.60 203.30 C 253.50 203.30 252.60 204.20 252.60 205.30 L 252.60 235.30 C 252.60 236.40 253.50 237.30 254.60 237.30 C 255.70 237.30 256.60 236.40 256.60 235.30 L 256.60 205.30 L 256.60 205.30 Z" fill="#dddefd" fill-rule="evenodd" node-id="181" stroke="none" target-height="34" target-width="4" target-x="252.6" target-y="203.3"></path><path d="M 212.10 199.70 C 212.10 198.60 211.20 197.70 210.10 197.70 C 209.00 197.70 208.10 198.60 208.10 199.70 L 208.10 235.40 C 208.10 236.50 209.00 237.40 210.10 237.40 C 211.20 237.40 212.10 236.50 212.10 235.40 L 212.10 199.70 L 212.10 199.70 Z" fill="#b1b2ff" fill-rule="evenodd" node-id="183" stroke="none" target-height="39.699997" target-width="4" target-x="208.1" target-y="197.7"></path><path d="M 266.00 199.70 C 266.00 198.60 265.10 197.70 264.00 197.70 C 262.90 197.70 262.00 198.60 262.00 199.70 L 262.00 235.40 C 262.00 236.50 262.90 237.40 264.00 237.40 C 265.10 237.40 266.00 236.50 266.00 235.40 L 266.00 199.70 L 266.00 199.70 Z" fill="#b1b2ff" fill-rule="evenodd" node-id="185" stroke="none" target-height="39.699997" target-width="4" target-x="262" target-y="197.7"></path><path d="M 223.80 228.00 C 223.80 226.90 222.90 226.00 221.80 226.00 C 220.70 226.00 219.80 226.90 219.80 228.00 L 219.80 235.30 C 219.80 236.40 220.70 237.30 221.80 237.30 C 222.90 237.30 223.80 236.40 223.80 235.30 L 223.80 228.00 L 223.80 228.00 Z" fill="#eaebfb" fill-rule="evenodd" node-id="187" stroke="none" target-height="11.300003" target-width="4" target-x="219.8" target-y="226"></path><path d="M 277.70 228.00 C 277.70 226.90 276.80 226.00 275.70 226.00 C 274.60 226.00 273.70 226.90 273.70 228.00 L 273.70 235.30 C 273.70 236.40 274.60 237.30 275.70 237.30 C 276.80 237.30 277.70 236.40 277.70 235.30 L 277.70 228.00 L 277.70 228.00 Z" fill="#b1b2ff" fill-rule="evenodd" node-id="189" stroke="none" target-height="11.300003" target-width="4" target-x="273.7" target-y="226"></path><path d="M 233.60 165.60 C 233.60 164.50 232.70 163.60 231.60 163.60 C 230.50 163.60 229.60 164.50 229.60 165.60 L 229.60 235.30 C 229.60 236.40 230.50 237.30 231.60 237.30 C 232.70 237.30 233.60 236.40 233.60 235.30 L 233.60 165.60 L 233.60 165.60 Z" fill="#dddefd" fill-rule="evenodd" node-id="191" stroke="none" target-height="73.7" target-width="4" target-x="229.6" target-y="163.6"></path><path d="M 287.50 165.60 C 287.50 164.50 286.60 163.60 285.50 163.60 C 284.40 163.60 283.50 164.50 283.50 165.60 L 283.50 235.30 C 283.50 236.40 284.40 237.30 285.50 237.30 C 286.60 237.30 287.50 236.40 287.50 235.30 L 287.50 165.60 L 287.50 165.60 Z" fill="#dddefd" fill-rule="evenodd" node-id="193" stroke="none" target-height="73.7" target-width="4" target-x="283.5" target-y="163.6"></path><path d="M 180.30 154.70 L 121.10 122.40 L 120.60 123.30 L 179.70 155.70 L 180.30 154.70 Z" fill="#8682f8" fill-rule="evenodd" node-id="195" stroke="none" target-height="33.299995" target-width="59.700005" target-x="120.6" target-y="122.4"></path><path d="M 227.00 124.80 L 180.30 154.80 L 180.90 155.70 L 227.60 125.70 L 227.00 124.80 Z" fill="#8682f8" fill-rule="evenodd" node-id="197" stroke="none" target-height="30.899994" target-width="47.300003" target-x="180.3" target-y="124.8"></path><path d="M 280.20 141.80 L 227.20 125.20 L 226.90 126.20 L 279.90 142.80 L 280.20 141.80 Z" fill="#8682f8" fill-rule="evenodd" node-id="199" stroke="none" target-height="17.600006" target-width="53.30002" target-x="226.9" target-y="125.2"></path><path d="M 180.30 152.30 C 181.40 152.30 182.40 153.20 182.40 154.40 C 182.40 155.60 181.50 156.50 180.30 156.50 C 179.10 156.50 178.20 155.60 178.20 154.40 C 178.20 153.20 179.10 152.30 180.30 152.30 L 180.30 152.30 Z" fill="#8682f8" fill-rule="evenodd" node-id="201" stroke="none" target-height="4.199997" target-width="4.199997" target-x="178.2" target-y="152.3"></path><path d="M 226.60 123.50 C 227.70 123.50 228.70 124.40 228.70 125.60 C 228.70 126.70 227.80 127.70 226.60 127.70 C 225.50 127.70 224.50 126.80 224.50 125.60 C 224.50 124.50 225.40 123.50 226.60 123.50 L 226.60 123.50 Z" fill="#8682f8" fill-rule="evenodd" node-id="203" stroke="none" target-height="4.199997" target-width="4.199997" target-x="224.5" target-y="123.5"></path><path d="M 280.50 140.20 C 281.60 140.20 282.60 141.10 282.60 142.30 C 282.60 143.40 281.70 144.40 280.50 144.40 C 279.40 144.40 278.40 143.50 278.40 142.30 C 278.50 141.10 279.40 140.20 280.50 140.20 L 280.50 140.20 Z" fill="#8682f8" fill-rule="evenodd" node-id="205" stroke="none" target-height="4.199997" target-width="4.200012" target-x="278.4" target-y="140.2"></path><path d="M 121.00 120.30 C 122.10 120.30 123.10 121.20 123.10 122.40 C 123.10 123.50 122.20 124.50 121.00 124.50 C 119.90 124.50 118.90 123.60 118.90 122.40 C 119.00 121.20 119.90 120.30 121.00 120.30 L 121.00 120.30 Z" fill="#8682f8" fill-rule="evenodd" node-id="207" stroke="none" target-height="4.199997" target-width="4.199997" target-x="118.9" target-y="120.3"></path></svg>