<?xml version="1.0" standalone="no"?><!DOCTYPE svg PUBLIC "-//W3C//DTD SVG 1.1//EN" "http://www.w3.org/Graphics/SVG/1.1/DTD/svg11.dtd"><svg t="1686637995147" class="icon" viewBox="0 0 1088 1024" version="1.1" xmlns="http://www.w3.org/2000/svg" p-id="912" xmlns:xlink="http://www.w3.org/1999/xlink" width="34" height="32"><path d="M744.10666667 279.89333333c20.48 61.44 47.78666667 109.22666667 95.57333333 157.01333334 40.96-40.96 68.26666667-95.57333333 88.74666667-157.01333334H744.10666667z m-450.56 341.33333334h177.49333333l-88.74666667-238.93333334z" fill="#5a5e66" p-id="913"></path><path d="M976.21333333-34.13333333h-819.2c-75.09333333 0-136.53333333 61.44-136.53333333 136.53333333v819.2c0 75.09333333 61.44 136.53333333 136.53333333 136.53333333h819.2c75.09333333 0 136.53333333-61.44 136.53333334-136.53333333V102.4c0-75.09333333-54.61333333-136.53333333-136.53333334-136.53333333zM641.70666667 846.50666667c-13.65333333 13.65333333-27.30666667 13.65333333-40.96 13.65333333-6.82666667 0-20.48 0-27.30666667-6.82666667s-13.65333333 0-13.65333333-6.82666666-6.82666667-13.65333333-13.65333334-27.30666667-6.82666667-20.48-13.65333333-34.13333333l-27.30666667-75.09333334h-238.93333333L238.93333333 785.06666667c-13.65333333 27.30666667-20.48 47.78666667-27.30666666 61.44-6.82666667 13.65333333-20.48 13.65333333-40.96 13.65333333-13.65333333 0-27.30666667-6.82666667-40.96-13.65333333-13.65333333-13.65333333-20.48-20.48-20.48-34.13333334 0-6.82666667 0-13.65333333 6.82666666-27.30666666s6.82666667-20.48 13.65333334-34.13333334l150.18666666-382.29333333c6.82666667-13.65333333 6.82666667-27.30666667 13.65333334-40.96s13.65333333-27.30666667 20.48-34.13333333 13.65333333-20.48 27.30666666-27.30666667c13.65333333-6.82666667 27.30666667-6.82666667 40.96-6.82666667 13.65333333 0 27.30666667 0 40.96 6.82666667 13.65333333 6.82666667 20.48 13.65333333 27.30666667 27.30666667 6.82666667 6.82666667 13.65333333 20.48 20.48 34.13333333 6.82666667 13.65333333 13.65333333 27.30666667 20.48 47.78666667l150.18666667 375.46666666c13.65333333 27.30666667 20.48 47.78666667 20.48 61.44-6.82666667 6.82666667-13.65333333 20.48-20.48 34.13333334z m375.46666666-266.24c-75.09333333-27.30666667-129.70666667-61.44-177.49333333-102.4-47.78666667 47.78666667-109.22666667 81.92-184.32 102.4l-20.48-34.13333334c75.09333333-20.48 136.53333333-47.78666667 184.32-95.57333333-47.78666667-47.78666667-88.74666667-109.22666667-102.4-177.49333333h-68.26666667v-27.30666667h184.32c-13.65333333-20.48-27.30666667-47.78666667-40.96-68.26666667l20.48-6.82666666c13.65333333 20.48 34.13333333 47.78666667 47.78666667 75.09333333h170.66666667v34.13333333h-68.26666667c-20.48 68.26666667-54.61333333 129.70666667-95.57333333 170.66666667 47.78666667 40.96 102.4 75.09333333 177.49333333 95.57333333l-27.30666667 34.13333334z" fill="#5a5e66" p-id="914"></path></svg>