<?xml version="1.0" standalone="no"?><!DOCTYPE svg PUBLIC "-//W3C//DTD SVG 1.1//EN" "http://www.w3.org/Graphics/SVG/1.1/DTD/svg11.dtd"><svg t="1683612363607" class="icon" viewBox="0 0 1024 1024" version="1.1" xmlns="http://www.w3.org/2000/svg" p-id="2538" width="32" height="32" xmlns:xlink="http://www.w3.org/1999/xlink"><path d="M703.280488 365.511671c-4.329609 10.697643-13.921058 17.040095-25.236777 17.040095L544.234145 382.551766 544.234145 835.109955c0 17.838274-14.398942 32.296567-32.232099 32.296567-17.838274 0-32.236192-14.458293-32.236192-32.296567L479.765855 382.551766l-134.206608 0c-11.314697 0-20.906146-6.342452-25.234731-17.040095-4.330632-10.69969-2.081405-22.148439 5.92085-30.334889l166.241208-170.104189c5.333472-5.459339 11.773138-8.1711 19.315928-8.1711 7.543813 0 13.982456 2.742461 19.316951 8.201799l166.241208 170.068374C705.358823 343.358115 707.610096 354.813005 703.280488 365.511671z" p-id="2539" fill="#18c988"></path></svg>